<?xml version="1.0" encoding="UTF-8"?>
<svg version="1.1" xmlns="http://www.w3.org/2000/svg" width="927" height="241">
<path d="M0 0 C1.42540604 -0.00744736 1.42540604 -0.00744736 2.87960815 -0.01504517 C6.01846038 -0.02963043 9.15726205 -0.03646335 12.29614258 -0.04199219 C14.48464458 -0.04774737 16.67314657 -0.05350505 18.86164856 -0.05926514 C23.45057408 -0.0697653 28.03948213 -0.07561417 32.62841797 -0.07910156 C38.49135714 -0.08457905 44.35406323 -0.10859548 50.21692944 -0.13707352 C54.73898479 -0.15575427 59.26098466 -0.16090843 63.78307533 -0.16243744 C65.94349756 -0.16545306 68.10391907 -0.17344451 70.26430321 -0.18662262 C73.29617086 -0.20379409 76.32747764 -0.20177561 79.359375 -0.1953125 C80.24129013 -0.20452728 81.12320526 -0.21374207 82.03184509 -0.22323608 C90.94324615 -0.16412036 99.24878739 1.59294202 105.76062012 8.01751709 C114.77377196 19.10511449 113.20049535 32.99688927 113.09692383 46.45800781 C113.09521034 48.82065774 113.09528083 51.18330958 113.0970459 53.54595947 C113.09539879 58.47825504 113.07680726 63.41009273 113.04516602 68.34228516 C113.00540371 74.65256327 113.00113493 80.96224527 113.00862885 87.27262497 C113.01170249 92.14377264 112.99956527 97.0147872 112.98249817 101.8859024 C112.9754878 104.21263036 112.97234124 106.53937339 112.97319031 108.86611176 C112.97138598 112.11804859 112.94995159 115.36927955 112.9230957 118.62109375 C112.92602631 119.57400803 112.92895691 120.5269223 112.93197632 121.50871277 C112.82697313 129.77932128 110.94736614 136.43258238 105.23364258 142.62597656 C97.59681181 149.40086255 87.54478075 150.46360041 77.75756836 150.43579102 C76.81661316 150.44090195 75.87565796 150.44601288 74.90618896 150.45127869 C71.81605552 150.46510359 68.7261469 150.46422322 65.63598633 150.46191406 C63.47419147 150.46580495 61.31239737 150.47014043 59.15060425 150.47489929 C54.62666339 150.4823463 50.1028006 150.48208128 45.57885742 150.47680664 C39.8000571 150.47101483 34.02157759 150.48794365 28.24283028 150.51115131 C23.77995964 150.52592933 19.31716553 150.5267548 14.85427475 150.52364159 C12.72456095 150.52415278 10.59484264 150.52935227 8.46515274 150.53945351 C5.47908313 150.55187924 2.49362915 150.54498943 -0.49243164 150.53344727 C-1.3602829 150.541091 -2.22813416 150.54873474 -3.12228394 150.55661011 C-11.4888059 150.48562879 -19.70608537 148.94069683 -25.96166992 143.04003906 C-30.72563545 137.20933316 -33.60812082 130.23113636 -33.63726807 122.70977783 C-33.64297821 121.82394012 -33.64868835 120.93810242 -33.65457153 120.02542114 C-33.65568939 119.06119232 -33.65680725 118.0969635 -33.65795898 117.10351562 C-33.66292389 116.08190338 -33.66788879 115.06029114 -33.67300415 114.00772095 C-33.68761377 110.62655972 -33.69442608 107.24544542 -33.69995117 103.86425781 C-33.70570394 101.51259358 -33.71146166 99.16092935 -33.71722412 96.80926514 C-33.72773093 91.87642193 -33.73357559 86.94359501 -33.73706055 82.01074219 C-33.74254224 75.69806242 -33.76656491 69.38559867 -33.7950325 63.0729866 C-33.81368123 58.21388119 -33.8188657 53.35482756 -33.82039642 48.49568939 C-33.8234188 46.16894094 -33.83143327 43.84219331 -33.8445816 41.51548004 C-33.86168717 38.25559692 -33.85975052 34.99623825 -33.85327148 31.73632812 C-33.86248627 30.78019623 -33.87170105 29.82406433 -33.88119507 28.83895874 C-33.83037084 20.65184586 -32.01113085 13.92754193 -26.37182617 7.76660156 C-18.5025317 1.02851817 -9.91744716 0.01242809 0 0 Z M0.19067383 32.34863281 C-8.69092532 43.76431704 -8.85406382 58.88389168 -8.8125 72.71386719 C-8.80934988 74.89472003 -8.83286031 77.07419724 -8.8581543 79.25488281 C-8.92047909 93.06852773 -8.2902356 108.28481228 1.21801758 119.11425781 C11.71592559 129.33308034 25.7291046 129.34795672 39.52612305 129.34643555 C41.73351586 129.34861342 43.94040091 129.36678586 46.14770508 129.38574219 C63.80325263 129.48350856 63.80325263 129.48350856 79.18676758 121.73144531 C86.61657501 113.98665852 87.50317383 105.59977141 87.50317383 95.16113281 C79.58317383 95.16113281 71.66317383 95.16113281 63.50317383 95.16113281 C62.84317383 98.13113281 62.18317383 101.10113281 61.50317383 104.16113281 C59.42055507 107.41001807 57.29782559 108.41441983 53.69067383 109.41113281 C44.21622417 111.16218622 32.66649337 111.53988577 23.50317383 108.16113281 C19.96702222 105.65635876 18.77689607 103.88649676 17.25317383 99.84863281 C16.15980656 93.01508738 15.93486039 86.06811782 15.50317383 79.16113281 C39.26317383 79.16113281 63.02317383 79.16113281 87.50317383 79.16113281 C88.35374022 53.35517331 88.35374022 53.35517331 78.01098633 30.36425781 C68.53004819 21.20086305 54.83511049 20.95579272 42.46508789 20.92089844 C40.40444576 20.91125575 38.34483001 20.88020992 36.28442383 20.84863281 C23.25494235 20.74392164 9.58742785 22.38947955 0.19067383 32.34863281 Z " fill="#000000" transform="translate(795.496826171875,-0.1611328125)"/>
<path d="M0 0 C10.56 0 21.12 0 32 0 C36.63755472 6.62507818 41.13457764 13.23068381 45.4375 20.0625 C46.66113262 21.99499794 47.88510464 23.92728101 49.109375 25.859375 C50.05973633 27.36081055 50.05973633 27.36081055 51.02929688 28.89257812 C54.40068176 34.20860721 57.79358139 39.51083848 61.1875 44.8125 C61.86594971 45.87259277 62.54439941 46.93268555 63.2434082 48.02490234 C67.02097403 53.92313445 70.81368602 59.81102469 74.625 65.6875 C81.13644332 75.75752281 87.5618744 85.88294548 94 96 C94.33 64.32 94.66 32.64 95 0 C105.23 0 115.46 0 126 0 C126 49.5 126 99 126 150 C115.11 150 104.22 150 93 150 C88.81243042 144.01775774 84.68175123 138.0776384 80.75 131.9375 C79.79043584 130.44656872 78.83079845 128.95568457 77.87109375 127.46484375 C77.39140137 126.71831543 76.91170898 125.97178711 76.41748047 125.20263672 C75.08597087 123.13359097 73.74947639 121.06790248 72.41015625 119.00390625 C66.30397476 109.5936792 60.25592018 100.1471237 54.21777344 90.69311523 C48.73517882 82.12117389 43.18939912 73.5916633 37.60839844 65.08349609 C37.01704102 64.18066895 36.42568359 63.2778418 35.81640625 62.34765625 C35.29506104 61.55367432 34.77371582 60.75969238 34.23657227 59.94165039 C33 58 33 58 32 56 C31.67 87.02 31.34 118.04 31 150 C20.77 150 10.54 150 0 150 C0 100.5 0 51 0 0 Z " fill="#000000" transform="translate(409,0)"/>
<path d="M0 0 C10.56 0 21.12 0 32 0 C42.42351725 12.80203797 42.42351725 12.80203797 44.89453125 18.40234375 C47.39077026 23.78255007 50.15417059 28.61691429 53.5 33.5 C54.37513855 34.84111927 55.24612292 36.18495701 56.11328125 37.53125 C56.56783691 38.23378906 57.02239258 38.93632813 57.49072266 39.66015625 C62.64001052 47.64313504 67.74564129 55.65429675 72.86230469 63.65820312 C75.06498654 67.10159157 77.27038881 70.54322349 79.4765625 73.984375 C80.21006356 75.12889264 80.94354364 76.27342372 81.67700195 77.41796875 C83.07084218 79.59278657 84.46518766 81.76728068 85.86010742 83.94140625 C86.80527222 85.41673828 86.80527222 85.41673828 87.76953125 86.921875 C88.32229736 87.78393555 88.87506348 88.64599609 89.44458008 89.53417969 C90.99993814 91.99990193 92.50009487 94.50015812 94 97 C94.33 64.99 94.66 32.98 95 0 C104.9 0 114.8 0 125 0 C125 49.5 125 99 125 150 C114.11 150 103.22 150 92 150 C84.31885921 141.69040224 84.31885921 141.69040224 82.95703125 137.81640625 C81.10866805 133.0867433 78.67097924 129.176323 75.8125 125 C74.89275539 123.58878246 73.9775661 122.17458799 73.06640625 120.7578125 C72.58059082 120.00532227 72.09477539 119.25283203 71.59423828 118.47753906 C68.46718204 113.61791169 65.36087704 108.74499284 62.25 103.875 C56.86913686 95.45565256 51.45790989 87.0571259 46 78.6875 C45.41379883 77.78821777 44.82759766 76.88893555 44.22363281 75.96240234 C39.85734629 69.27938646 35.42861821 62.64292731 31 56 C30.67 87.02 30.34 118.04 30 150 C20.1 150 10.2 150 0 150 C0 100.5 0 51 0 0 Z " fill="#000000" transform="translate(60,0)"/>
<path d="M0 0 C35.64 0 71.28 0 108 0 C108 8.58 108 17.16 108 26 C82.92 26 57.84 26 32 26 C32 37.55 32 49.1 32 61 C53.78 61 75.56 61 98 61 C98 69.58 98 78.16 98 87 C76.22 87 54.44 87 32 87 C32 107.79 32 128.58 32 150 C21.44 150 10.88 150 0 150 C0 100.5 0 51 0 0 Z " fill="#000000" transform="translate(213,0)"/>
<path d="M0 0 C41.25 0 82.5 0 125 0 C125 8.58 125 17.16 125 26 C109.82 26 94.64 26 79 26 C79 66.92 79 107.84 79 150 C68.11 150 57.22 150 46 150 C46 109.08 46 68.16 46 26 C30.82 26 15.64 26 0 26 C0 17.42 0 8.84 0 0 Z " fill="#000000" transform="translate(623,0)"/>
<path d="M0 0 C231.33 0 462.66 0 701 0 C701 2.64 701 5.28 701 8 C469.67 8 238.34 8 0 8 C0 5.36 0 2.72 0 0 Z " fill="#000000" transform="translate(0,172)"/>
<path d="M0 0 C10.89 0 21.78 0 33 0 C33 49.5 33 99 33 150 C22.11 150 11.22 150 0 150 C0 100.5 0 51 0 0 Z " fill="#000000" transform="translate(562,0)"/>
<path d="M0 0 C10.89 0 21.78 0 33 0 C33 49.5 33 99 33 150 C22.11 150 11.22 150 0 150 C0 100.5 0 51 0 0 Z " fill="#000000" transform="translate(349,0)"/>
<path d="M0 0 C10.89 0 21.78 0 33 0 C33 49.5 33 99 33 150 C22.11 150 11.22 150 0 150 C0 100.5 0 51 0 0 Z " fill="#000000" transform="translate(0,0)"/>
<path d="M0 0 C0.75563232 -0.0093457 1.51126465 -0.01869141 2.28979492 -0.02832031 C8.24170823 0.00533191 14.32918835 0.39672593 19.3125 3.9375 C24.04432779 10.67125493 22.9375 16.9240632 22.9375 25.25 C7.0975 25.25 -8.7425 25.25 -25.0625 25.25 C-25.0625 8.49242424 -25.0625 8.49242424 -21 3.9375 C-14.31981234 0.09994538 -7.49108429 0.06418964 0 0 Z " fill="#000000" transform="translate(836.0625,38.75)"/>
<path d="M0 0 C12 0 12 0 15.8046875 3.03515625 C16.86496933 4.34869847 17.8885829 5.6926197 18.875 7.0625 C19.390625 7.71927734 19.90625 8.37605469 20.4375 9.05273438 C21.41410665 10.29803054 22.37602854 11.55513273 23.31591797 12.82836914 C25.7600494 15.9800869 28.40440256 18.97180298 31 22 C31.33 14.74 31.66 7.48 32 0 C34.64 0 37.28 0 40 0 C40 11.22 40 22.44 40 34 C29 34 29 34 26.2734375 32.19921875 C25.64695312 31.37035156 25.02046875 30.54148438 24.375 29.6875 C23.30378906 28.33398438 23.30378906 28.33398438 22.2109375 26.953125 C21.11652344 25.49132812 21.11652344 25.49132812 20 24 C18.33930293 21.97425807 16.67277842 19.95327715 15 17.9375 C14.2575 17.01839844 13.515 16.09929687 12.75 15.15234375 C11.17822462 13.14403815 11.17822462 13.14403815 10 12 C9.67 19.26 9.34 26.52 9 34 C6.03 34 3.06 34 0 34 C0 22.78 0 11.56 0 0 Z " fill="#000000" transform="translate(595,201)"/>
<path d="M0 0 C11 0 11 0 13.9453125 2.01953125 C14.66460937 2.94121094 15.38390625 3.86289063 16.125 4.8125 C16.929375 5.80507812 17.73375 6.79765625 18.5625 7.8203125 C18.96082031 8.34141602 19.35914063 8.86251953 19.76953125 9.39941406 C21.01930108 11.02510672 22.31203753 12.60471695 23.625 14.1796875 C25.77474014 16.7660936 27.89076037 19.38046046 30 22 C30.33 14.74 30.66 7.48 31 0 C33.97 0 36.94 0 40 0 C40 11.22 40 22.44 40 34 C28 34 28 34 24.703125 31.5078125 C23.84751682 30.40868888 23.03005075 29.27897526 22.25 28.125 C21.80809326 27.54016846 21.36618652 26.95533691 20.91088867 26.3527832 C20.01400757 25.16282487 19.13179644 23.96165753 18.26513672 22.74951172 C16.38262464 20.14625398 14.34361479 17.67552637 12.3125 15.1875 C11.219375 13.805625 10.12625 12.42375 9 11 C8.67 18.59 8.34 26.18 8 34 C5.36 34 2.72 34 0 34 C0 22.78 0 11.56 0 0 Z " fill="#000000" transform="translate(338,201)"/>
<path d="M0 0 C2.875 2.375 2.875 2.375 5 5 C5.598125 5.721875 6.19625 6.44375 6.8125 7.1875 C8.61720922 11.4618113 8.65357995 15.43228392 8 20 C5.17071833 25.76738187 0.84841392 29.77925118 -5.0625 32.3125 C-13.75184907 33.82968793 -22.99635508 34.20275078 -31 30 C-34.94279324 26.74290993 -38.57428626 23.14328366 -39.28515625 17.89453125 C-39.47904379 12.86188509 -38.90138372 9.25536279 -36 5 C-26.78073767 -4.43876857 -11.67975112 -6.01974852 0 0 Z M-27.5 7.75 C-29.60412115 10.90618172 -29.93481332 13.21917274 -30 17 C-28.79372527 20.48479367 -27.67789022 22.42179952 -24.875 24.8125 C-19.41536095 27.0675683 -14.85734752 27.57851808 -9.1875 25.8125 C-5.53276247 23.73431592 -2.89686738 21.79373476 -1 18 C-0.58802951 13.36533199 -1.04432327 10.64533463 -4 7 C-12.18292239 1.90840385 -19.66659555 2.26661689 -27.5 7.75 Z " fill="#000000" transform="translate(314,203)"/>
<path d="M0 0 C3.485625 -0.061875 6.97125 -0.12375 10.5625 -0.1875 C12.18973999 -0.22846802 12.18973999 -0.22846802 13.84985352 -0.27026367 C20.49547095 -0.32711607 25.86843093 0.07046764 30.9375 4.8125 C32.39361756 7.8103891 32.4712013 9.70159091 32 13 C30.3125 15.8125 30.3125 15.8125 28 18 C25.35546875 18.63671875 25.35546875 18.63671875 23 19 C23.721875 19.91523438 24.44375 20.83046875 25.1875 21.7734375 C26.1252527 22.97376095 27.06273895 24.1742926 28 25.375 C28.47695313 25.97828125 28.95390625 26.5815625 29.4453125 27.203125 C33 31.7734375 33 31.7734375 33 34 C29.48539664 34.64818505 26.49483159 34.82902965 23 34 C19.71330637 31.06467987 17.37322026 27.69361487 15 24 C14.34 23.01 13.68 22.02 13 21 C11.35 20.67 9.7 20.34 8 20 C8 24.62 8 29.24 8 34 C5.36 34 2.72 34 0 34 C0 22.78 0 11.56 0 0 Z M8 6 C8 8.64 8 11.28 8 14 C9.7492214 14.08142927 11.49954542 14.13938541 13.25 14.1875 C14.22453125 14.22230469 15.1990625 14.25710937 16.203125 14.29296875 C19.37468742 13.96075202 20.67040307 13.11327721 23 11 C21.6910428 7.87802522 21.6910428 7.87802522 19 6 C17.12620395 5.92966231 15.24998898 5.9156978 13.375 5.9375 C11.87066406 5.95103516 11.87066406 5.95103516 10.3359375 5.96484375 C9.17964844 5.98224609 9.17964844 5.98224609 8 6 Z " fill="#000000" transform="translate(230,201)"/>
<path d="M0 0 C9.9 0 19.8 0 30 0 C30 1.98 30 3.96 30 6 C23.07 6 16.14 6 9 6 C9 8.31 9 10.62 9 13 C15.6 13 22.2 13 29 13 C29 15.31 29 17.62 29 20 C22.4 20 15.8 20 9 20 C9 22.64 9 25.28 9 28 C16.26 28 23.52 28 31 28 C31 29.98 31 31.96 31 34 C20.77 34 10.54 34 0 34 C0 22.78 0 11.56 0 0 Z " fill="#000000" transform="translate(0,201)"/>
<path d="M0 0 C9.57 0 19.14 0 29 0 C29 1.98 29 3.96 29 6 C22.07 6 15.14 6 8 6 C8 8.31 8 10.62 8 13 C14.6 13 21.2 13 28 13 C28 15.31 28 17.62 28 20 C21.4 20 14.8 20 8 20 C8 22.64 8 25.28 8 28 C15.26 28 22.52 28 30 28 C30 29.98 30 31.96 30 34 C20.1 34 10.2 34 0 34 C0 22.78 0 11.56 0 0 Z " fill="#000000" transform="translate(88,201)"/>
<path d="M0 0 C-1.14018002 3.42054006 -1.92458518 4.2426201 -5 6 C-6.33787249 5.68537944 -7.67046041 5.34815711 -9 5 C-10.91561254 4.93311409 -12.83335592 4.91468281 -14.75 4.9375 C-15.73484375 4.94652344 -16.7196875 4.95554688 -17.734375 4.96484375 C-18.85585938 4.98224609 -18.85585938 4.98224609 -20 5 C-20.07305237 6.95868081 -20.07305237 6.95868081 -19 9 C-15.89615522 10.25426779 -12.86264165 11.12778141 -9.63476562 11.97851562 C-4.93463712 13.34306906 -2.56577256 14.8079423 0 19 C0.50252875 22.44591142 0.21475631 24.45679286 -1.0625 27.6875 C-4.50385319 31.79492155 -7.91678539 32.78239032 -13.06640625 33.3203125 C-20.21962889 33.56897609 -24.9296239 32.80886343 -31 29 C-29.85850772 25.57552315 -29.15307687 24.6641239 -26 23 C-23.6875 23.75 -23.6875 23.75 -21 25 C-16.21658837 26.0707748 -16.21658837 26.0707748 -11.5625 25.0625 C-11.046875 24.711875 -10.53125 24.36125 -10 24 C-10 22.68 -10 21.36 -10 20 C-10.79664063 19.81824219 -11.59328125 19.63648438 -12.4140625 19.44921875 C-26.21272462 16.1758135 -26.21272462 16.1758135 -29.4375 12.25 C-30.28441764 8.86232946 -29.84213994 6.36855977 -29 3 C-22.53055999 -6.20651078 -8.84476616 -3.93100718 0 0 Z " fill="#000000" transform="translate(501,203)"/>
<path d="M0 0 C1.5 2.1875 1.5 2.1875 2 4 C0.125 5.6875 0.125 5.6875 -3 7 C-5.27734375 6.4609375 -5.27734375 6.4609375 -7.8125 5.5625 C-13.12156114 3.73751023 -15.78459956 3.87848118 -21 6 C-23.64083652 8.13514442 -25.40598408 9.88622015 -27 12.875 C-27 17.11879005 -25.11270098 20.71611425 -22.375 23.875 C-18.69002757 25.62051326 -15.06939447 26.15596982 -11 26 C-8.9697411 25.06295743 -6.96303418 24.07074592 -5 23 C-1.4355181 23.24868478 -0.02323407 23.98451062 3 26 C2.5 27.8125 2.5 27.8125 1 30 C-6.44883956 33.93523599 -14.68320578 34.22526945 -22.84765625 32.34375 C-28.62304537 30.32279936 -33.06211098 27.48693979 -36 22 C-37.68300895 16.68322172 -37.31894848 11.86600264 -35.06640625 6.78515625 C-31.92429313 1.52528191 -27.17339902 -0.82233615 -21.4921875 -2.49609375 C-13.85765717 -4.0397527 -6.95008623 -3.53822572 0 0 Z " fill="#000000" transform="translate(456,203)"/>
<path d="M0 0 C1.5 2.1875 1.5 2.1875 2 4 C0.125 5.6875 0.125 5.6875 -3 7 C-5.27734375 6.4609375 -5.27734375 6.4609375 -7.8125 5.5625 C-13.12156114 3.73751023 -15.78459956 3.87848118 -21 6 C-23.64083652 8.13514442 -25.40598408 9.88622015 -27 12.875 C-27 17.11879005 -25.11270098 20.71611425 -22.375 23.875 C-18.69002757 25.62051326 -15.06939447 26.15596982 -11 26 C-8.9697411 25.06295743 -6.96303418 24.07074592 -5 23 C-1.4355181 23.24868478 -0.02323407 23.98451062 3 26 C2.5 27.8125 2.5 27.8125 1 30 C-6.44883956 33.93523599 -14.68320578 34.22526945 -22.84765625 32.34375 C-28.62304537 30.32279936 -33.06211098 27.48693979 -36 22 C-37.68300895 16.68322172 -37.31894848 11.86600264 -35.06640625 6.78515625 C-31.92429313 1.52528191 -27.17339902 -0.82233615 -21.4921875 -2.49609375 C-13.85765717 -4.0397527 -6.95008623 -3.53822572 0 0 Z " fill="#000000" transform="translate(682,203)"/>
<path d="M0 0 C0.495 1.485 0.495 1.485 1 3 C-4.75590114 6.30658151 -4.75590114 6.30658151 -8.1875 5.4609375 C-8.93 5.16445312 -9.6725 4.86796875 -10.4375 4.5625 C-15.42434459 2.5881861 -18.00958301 3.05458321 -23 5 C-25.33599905 6.91671717 -26.65947294 8.31894589 -28 11 C-28.29202515 14.28528294 -28.15405763 16.58597011 -27 19.6875 C-24.1672066 22.96291737 -21.2073559 24.14151378 -17 25 C-13.49518624 24.82475931 -10.97658069 24.51701331 -7.875 22.875 C-5.24891217 21.64949235 -3.72217519 22.16240763 -1 23 C-0.01 23.66 0.98 24.32 2 25 C2 25.66 2 26.32 2 27 C-5.8285081 32.05065039 -12.7742055 33.16400211 -22 32 C-28.45175054 30.25728577 -33.6130999 27.00628109 -37.10546875 21.14453125 C-38.96048019 16.69736409 -38.82596171 11.48257809 -37.3125 6.93359375 C-34.35207403 1.22243865 -30.23823137 -1.2412775 -24.3125 -3.25 C-15.89424612 -5.0171907 -7.30659069 -5.08062934 0 0 Z " fill="#000000" transform="translate(170,204)"/>
<path d="M0 0 C11.55 0 23.1 0 35 0 C35 1.98 35 3.96 35 6 C30.71 6 26.42 6 22 6 C22 15.24 22 24.48 22 34 C19.03 34 16.06 34 13 34 C13 24.76 13 15.52 13 6 C8.71 6 4.42 6 0 6 C0 4.02 0 2.04 0 0 Z " fill="#000000" transform="translate(181,201)"/>
<path d="M0 0 C2.64 0 5.28 0 8 0 C8 9.24 8 18.48 8 28 C14.27 28 20.54 28 27 28 C27 29.98 27 31.96 27 34 C18.09 34 9.18 34 0 34 C0 22.78 0 11.56 0 0 Z " fill="#000000" transform="translate(47,201)"/>
<path d="M0 0 C2.97 0 5.94 0 9 0 C9 11.22 9 22.44 9 34 C6.03 34 3.06 34 0 34 C0 22.78 0 11.56 0 0 Z " fill="#000000" transform="translate(569,201)"/>
<path d="M0 0 C2.97 0 5.94 0 9 0 C9 11.22 9 22.44 9 34 C6.03 34 3.06 34 0 34 C0 22.78 0 11.56 0 0 Z " fill="#000000" transform="translate(395,201)"/>
<path d="M0 0 C2.77428577 1.26103899 4.48317435 2.31089914 6.3125 4.75 C7.31199111 8.0210618 7.3581657 10.59742588 7 14 C5.20437595 16.75329021 3.94745078 18.52627461 1 20 C-3.74616694 20.65271451 -6.98277746 20.69934049 -11 17.9375 C-13.39441358 14.42070506 -14 12.24773336 -14 8 C-11.40737135 1.66246331 -6.71870121 -0.83983765 0 0 Z M-5 3 C-5.66 3.66 -6.32 4.32 -7 5 C-4.69 5 -2.38 5 0 5 C-0.66 4.34 -1.32 3.68 -2 3 C-2.99 3 -3.98 3 -5 3 Z M0 5 C0.33 7.97 0.66 10.94 1 14 C1.66 14 2.32 14 3 14 C3.26932521 9.34947128 3.26932521 9.34947128 2 5 C1.34 5 0.68 5 0 5 Z M-9 6 C-10.33187793 7.11166864 -10.33187793 7.11166864 -10.1875 9.9375 C-10.33278733 13.10892859 -10.33278733 13.10892859 -8 15 C-8 12.03 -8 9.06 -8 6 C-8.33 6 -8.66 6 -9 6 Z M-4 12 C-4 13.32 -4 14.64 -4 16 C-4.99 16.495 -4.99 16.495 -6 17 C-4.02 17 -2.04 17 0 17 C-0.66 16.67 -1.32 16.34 -2 16 C-2.625 13.9375 -2.625 13.9375 -3 12 C-3.33 12 -3.66 12 -4 12 Z " fill="#000000" transform="translate(920,0)"/>
<path d="M0 0 C2.64 0 5.28 0 8 0 C7.39254603 4.85963179 5.27241033 8.7405518 3 13 C0.69 13 -1.62 13 -4 13 C-3.71517632 11.58194169 -3.42181856 10.16559621 -3.125 8.75 C-2.96257813 7.96109375 -2.80015625 7.1721875 -2.6328125 6.359375 C-2.00849925 4.03168856 -1.15161458 2.10968048 0 0 Z " fill="#000000" transform="translate(519,228)"/>
<path d="M0 0 C0.625 2.375 0.625 2.375 1 5 C-1 7 -1 7 -4.5 7.25 C-8 7 -8 7 -10 5 C-9.75 2.4375 -9.75 2.4375 -9 0 C-5.93109813 -1.53445094 -3.29905734 -0.54984289 0 0 Z " fill="#000000" transform="translate(701,228)"/>
</svg>
